<svg width="574" height="128" viewBox="0 0 574 128" fill="none" xmlns="http://www.w3.org/2000/svg">
<g clip-path="url(#clip0_1_2)">
<path d="M54.7 104.8V86.2C51.8 87.9 47.4 88.7 43.1 88.7C30.7 88.7 21.4 79.7 21.4 66.8C21.4 53.8 29.9 44.9 43.1 44.9C47.3 44.9 51.8 45.5 54.7 47.2V28.6C51.1 27.5 47.2 26.9 43.1 26.9C19.3 26.9 3.7 44.1 3.7 66.8C3.7 89.1 20.3 106.7 43.1 106.7C47.2 106.7 51 106 54.7 104.8ZM79.4008 105V29.1H64.0008V105H79.4008ZM145.661 105V77.8C145.661 62.1 132.861 49.2 117.161 49.2C101.461 49.2 88.6609 62 88.6609 77.7C88.6609 93.4 101.461 106.2 117.161 106.2C120.161 106.2 123.261 105.7 125.961 104.8V87.9C123.661 89.5 120.561 90.5 117.161 90.5C110.061 90.5 104.361 84.8 104.361 77.7C104.361 70.6 110.061 64.9 117.161 64.9C124.261 64.9 130.261 70.7 130.261 77.8V105H145.661ZM188.67 65.6V49.6C187.17 49.3 186.37 49.2 185.07 49.2C176.17 49.2 163.27 55.3 163.27 75.9C163.27 88 160.07 90.1 153.07 90.1V105C154.17 105.7 155.07 106.2 157.87 106.2C160.57 106.2 177.77 105.4 178.97 84.2C179.77 69.8 180.57 65.6 187.47 65.6H188.67ZM227.634 65.6V49.6C226.134 49.3 225.334 49.2 224.034 49.2C215.134 49.2 202.234 55.3 202.234 75.9C202.234 88 199.034 90.1 192.034 90.1V105C193.134 105.7 194.034 106.2 196.834 106.2C199.534 106.2 216.734 105.4 217.934 84.2C218.734 69.8 219.534 65.6 226.434 65.6H227.634ZM252.199 37.7C252.199 32.5 247.999 28.3 242.799 28.3C237.599 28.3 233.399 32.5 233.399 37.7C233.399 42.9 237.599 47 242.799 47C247.999 47 252.199 42.9 252.199 37.7ZM250.299 105V50.3H234.899V105H250.299ZM301.359 102.9L294.659 88.7C292.759 89.8 290.459 90.5 288.059 90.5C280.959 90.5 275.259 84.8 275.259 77.7C275.259 70.6 280.959 64.9 288.059 64.9C290.459 64.9 292.659 65.5 294.559 66.6L301.259 52.4C297.359 50.4 292.759 49.2 288.059 49.2C272.359 49.2 259.559 62 259.559 77.7C259.559 93.4 272.359 106.2 288.059 106.2C293.059 106.2 297.359 105.1 301.359 102.9Z" fill="#584223"/>
<path d="M366.1 105V84.1C366.1 76.7 362 70.9 355.9 68.9C361.2 65.2 364.7 58.7 364.7 52.7C364.7 37.9 356.9 28.5 339.6 28.5H310.7V105H327.7V45.4H336.9C343.3 45.4 347.6 47.8 347.6 54.2C347.6 59.6 343.3 63.1 338.4 63.1C336.5 63.1 334 63 332.3 62.7V77.9H339C345.3 77.9 349.1 82.7 349.1 89V105H366.1ZM431.423 77.7C431.423 62 418.623 49.2 402.923 49.2C387.223 49.2 374.423 62 374.423 77.7C374.423 93.4 387.223 106.2 402.923 106.2C418.623 106.2 431.423 93.4 431.423 77.7ZM415.723 77.7C415.723 84.8 410.023 90.5 402.923 90.5C395.823 90.5 390.123 84.8 390.123 77.7C390.123 70.6 395.823 64.9 402.923 64.9C410.023 64.9 415.723 70.6 415.723 77.7ZM495.68 77.7C495.68 62 482.88 49.2 467.18 49.2C451.48 49.2 438.68 62 438.68 77.7C438.68 93.4 451.48 106.2 467.18 106.2C482.88 106.2 495.68 93.4 495.68 77.7ZM479.98 77.7C479.98 84.8 474.28 90.5 467.18 90.5C460.08 90.5 454.38 84.8 454.38 77.7C454.38 70.6 460.08 64.9 467.18 64.9C474.28 64.9 479.98 70.6 479.98 77.7ZM532.038 65V50.3H520.338V34H504.938V81C504.938 96.7 511.638 106.2 528.238 106.2H531.638V90.6C524.638 93 520.338 90.2 520.338 81.3V65H532.038ZM571.99 65.6V49.6C570.49 49.3 569.69 49.2 568.39 49.2C559.49 49.2 546.59 55.3 546.59 75.9C546.59 88 543.39 90.1 536.39 90.1V105C537.49 105.7 538.39 106.2 541.19 106.2C543.89 106.2 561.09 105.4 562.29 84.2C563.09 69.8 563.89 65.6 570.79 65.6H571.99Z" fill="url(#paint0_linear_1_2)"/>
</g>
<defs>
<linearGradient id="paint0_linear_1_2" x1="305" y1="64" x2="574" y2="64" gradientUnits="userSpaceOnUse">
<stop stop-color="#F48200"/>
<stop offset="1" stop-color="#F6BB00"/>
</linearGradient>
<clipPath id="clip0_1_2">
<rect width="574" height="128" fill="white"/>
</clipPath>
</defs>
</svg>
